<?xml version="1.0" encoding="iso-8859-1"?>
<!-- Generator: Adobe Illustrator 18.0.0, SVG Export Plug-In . SVG Version: 6.00 Build 0)  -->
<!DOCTYPE svg PUBLIC "-//W3C//DTD SVG 1.1//EN" "http://www.w3.org/Graphics/SVG/1.1/DTD/svg11.dtd">
<svg version="1.1" id="Capa_1" xmlns="http://www.w3.org/2000/svg" xmlns:xlink="http://www.w3.org/1999/xlink" x="0px" y="0px"
	 viewBox="0 0 457 457" style="enable-background:new 0 0 457 457;" xml:space="preserve">
<g>
	<path d="M226,197.667h155.667V133H453.5v-7h-71.833v-12.333H453.5v-7h-71.833V42h-65.333H226v64.667H107v-5h10.667v-61H72v61
		h10.667v5H6.833v7H126V126H6.833v7H226V197.667z M233,190.667v-77h58.333v77H233z M290.167,93.167h-45.713v-6.5h45.713V93.167z
		 M248.667,100.167h48.5v6.5h-48.5V100.167z M298.333,126v-12.333h5.833h5.167V126H298.333z M314.167,190.667v-6.5h48.5v6.5H314.167
		z M356.167,170.667v6.5h-48.5v-6.5H356.167z M317.667,163.667v-6.5h45.654v6.5h-0.154H317.667z M374.667,190.667h-5v-13.5h-6.5
		v-6.5h7.154v-20.5h-59.654v13.5h-10v20.5h6.5v6.5h-8.833V133h76.333V190.667z M374.667,49v77h-58.333v-12.333v-19.5V49H374.667z
		 M233,49h76.333v45.167v12.5h-5.167v-13.5h-7v-13.5h-59.713v20.5h4.213v6.5H233V49z M79,47.667h31.667v47H79V47.667z
		 M89.667,101.667H100v5H89.667V101.667z M133,126v-12.333h93V126H133z"/>
	<path d="M218.626,300.149V179.333H30.667v120.815H218.626z M37.667,186.333h173.959v106.815H37.667V186.333z"/>
	<path d="M46.062,284h157.169v-88.517H46.062V284z M79.717,277H73.95l74.517-74.517h5.768L79.717,277z M164.133,202.483h23.601
		L113.217,277H89.617L164.133,202.483z M123.117,277l73.114-73.114V277H123.117z M53.062,202.483h85.505L64.05,277H53.062V202.483z"
		/>
	<path d="M457,330.667h-92.861c5.339-4.339,8.194-10.594,8.194-18.5c0-16.129-11.694-29.57-27.047-32.312l2.755-22.767l-6.949-0.842
		l-1.976,16.331l-2.967-29.264l-6.964,0.707l3.65,35.995c-14.919,3.089-26.168,16.33-26.168,32.152c0,7.906,2.855,14.161,8.194,18.5
		H0V411h8.833v5.334h12V411h415.333v5.334h12V411H457V330.667z M361.81,299.167c1.177,2.011,2.094,4.192,2.694,6.5h-50.008
		c0.6-2.308,1.518-4.489,2.694-6.5H361.81z M323.171,292.167c4.454-3.643,10.14-5.833,16.329-5.833c6.189,0,11.876,2.19,16.33,5.833
		H323.171z M314.872,319.167c-0.734-1.928-1.133-4.092-1.182-6.5h51.621c-0.048,2.408-0.447,4.572-1.182,6.5H314.872z
		 M320.387,326.167h38.226c-4.314,2.988-10.687,4.5-19.113,4.5C331.074,330.667,324.701,329.154,320.387,326.167z M155,337.667
		h145.667V404H155V337.667z M148,337.667v27.667H7v-27.667H148z M7,372.333h141V404H7V372.333z M450,404H307.667v-66.333H450V404z"
		/>
	<path d="M82.142,88.682h25.383V53.651H82.142V88.682z M89.142,60.651h11.383v21.031H89.142V60.651z"/>
	<rect x="288.667" y="364.5" width="7" height="12.667"/>
	<rect x="438.3" y="364.5" width="7" height="12.667"/>
</g>
<g>
</g>
<g>
</g>
<g>
</g>
<g>
</g>
<g>
</g>
<g>
</g>
<g>
</g>
<g>
</g>
<g>
</g>
<g>
</g>
<g>
</g>
<g>
</g>
<g>
</g>
<g>
</g>
<g>
</g>
</svg>
